
<svg xmlns="http://www.w3.org/2000/svg" viewBox="0 0 320 44" enable-background="new 0 0 320 44">
<filter width="140%" height="130%" id="a" filterUnits="objectBoundingBox" x="-15%" y="-15%">
    <feGaussianBlur stdDeviation="3" result="blur" in="SourceAlpha"/>
    <feOffset result="offsetBlurredAlpha" in="blur" dy="8" dx="8"/>
    <feMerge><feMergeNode in="offsetBlurredAlpha"/><feMergeNode in="SourceGraphic"/>
    </feMerge></filter><g filter="url(#a)" fill="#FFF" stroke="#5590CC">
        
    <path d="M33.1 5.1v29.2c0 .6-.2 1-.5 1.4-.3.4-.7.6-1.2.6h-5.8c-.4 0-.8-.2-1.2-.6-.3-.4-.5-.9-.5-1.4v-11H13.6v11c0 .5-.2 1-.5 1.4-.3.4-.7.6-1.2.6H6.1c-.4 0-.8-.2-1.2-.6-.3-.4-.5-.9-.5-1.4V5.1c0-.5.2-1 .5-1.4s.7-.6 1.2-.6h5.8c.5 0 .9.2 1.2.6s.5.8.5 1.4v10.1h10.3V5.1c0-.5.2-1 .5-1.4s.7-.6 1.2-.6h5.8c.5 0 .9.2 1.2.5.3.4.5.9.5 1.5zM33.2 34.4c0-.5.1-1.1.2-1.6s.2-.8.3-.9l8.9-26.7c.2-.7.6-1.2 1.1-1.5.5-.4 1-.6 1.7-.6h5.8c.7 0 1.3.3 1.7.7.5.4.8.9.9 1.5l9 26.7c0 .2.1.5.2 1s.2 1 .2 1.4c0 1.1-.5 1.8-1.6 2h-5.5c-.6 0-1-.1-1.4-.4-.4-.2-.6-.6-.7-1l-1.2-4.7h-8.9L42.5 35c-.1.4-.3.8-.7 1-.4.2-.8.4-1.4.4h-5.6c-1.1-.3-1.6-.9-1.6-2zm15.4-12.2h2.6L48.1 11 45 22.1h3.6zM60.9 19.6c0-3.1.7-6 2-8.7 1.3-2.7 3.2-4.8 5.5-6.3 2.3-1.6 4.8-2.3 7.5-2.3s5.3.8 7.7 2.5c.5.3.7.8.7 1.4 0 .4-.1.8-.4 1.2L80 12.5c-.3.3-.6.5-.9.5-.3 0-.5-.1-.7-.2-.7-.4-1.5-.6-2.4-.6-1.1 0-2.2.3-3.2 1-1 .6-1.7 1.5-2.3 2.6-.6 1.1-.8 2.3-.8 3.7 0 1.3.3 2.5.9 3.6.6 1.1 1.3 2 2.3 2.7s2 1 3.2 1c.8 0 1.7-.2 2.6-.7.2-.1.4-.2.7-.2.3 0 .6.1.9.4l4.4 5.1c.3.4.5.8.5 1.3s-.2.9-.6 1.3c-2.7 2-5.5 3-8.4 3-2.7 0-5.2-.8-7.5-2.3-2.3-1.6-4.1-3.7-5.5-6.4-1.6-2.6-2.3-5.5-2.3-8.7zM114.9 34.3c0 .5-.1.9-.3 1.2s-.5.5-.8.5h-7.2c-.4 0-.7-.2-1-.6l-5.4-9.1-5.7 9.1c-.1.3-.3.5-.5.7-.3.2-.5.2-.8.2h-5.7c-.5 0-.9-.2-1.1-.5s-.4-.8-.4-1.4V5.5c0-.5.1-1 .4-1.3.3-.3.7-.5 1.1-.5h5.7c.4 0 .8.2 1.1.5.3.4.5.8.5 1.3v12.6l8.9-13.3c.5-.7 1.3-1 2.4-.9h6.2c.6.1.9.5.9 1.2 0 .5-.2 1-.5 1.5l-6.8 11 8.9 15.7c0 .3.1.6.1 1zM123.9 11.6v3.8h11.3c.4 0 .8.2 1.1.6.3.4.5.9.5 1.5v4.1c0 .5-.2 1-.5 1.4-.3.4-.7.6-1.1.6h-11.3V28h11.9c.5 0 .8.2 1.2.6.3.4.5.9.5 1.5v4.1c0 .6-.2 1.1-.5 1.5-.3.4-.7.6-1.2.6h-18.9c-.5 0-.8-.2-1.2-.6-.3-.4-.5-.9-.5-1.5V5.4c0-.6.2-1.1.5-1.5.3-.4.7-.6 1.2-.6h18.9c.5 0 .8.2 1.2.6.3.4.5.9.5 1.5v4.1c0 .5-.2 1-.5 1.4-.3.4-.7.6-1.2.6h-11.9zM155.1 33.5c-.3-2.2-.9-3.6-1.8-4.5-.9-.8-2.1-1.3-3.4-1.5h-.7c-.3 0-.5 0-.7.1v6.1c0 .6 0 1.1-.1 1.4s-.3.7-.8.9c-.4.2-1.1.4-1.9.4H142c-.8 0-1.5-.2-2-.5-.5-.4-.7-.9-.7-1.6V4.9c0-.5.2-.9.6-1.3.4-.4.9-.5 1.4-.5h9.1c4 0 7 .8 8.9 2.4 1.9 1.6 3 4.2 3.1 7.7v2.2c-.1 1.8-.5 3.3-1.2 4.4-.7 1.1-1.6 2.1-2.7 3 1.3.8 2.4 1.8 3.1 3.3s1.3 2.9 1.6 4.5.4 2.9.3 4.2c0 .5-.2 1-.5 1.3-.3.3-.8.5-1.4.5h-4.9c-.7 0-1.1-.2-1.3-.6-.2-.4-.3-.8-.3-1.3v-1.2zm-6-14.9c1.2 0 2.4-.3 3.4-.8s1.5-1.7 1.5-3.6c0-1.3-.3-2.3-1-3-.7-.7-1.7-1-2.9-1h-3.3v8.5h2.3zM173.7 35.5V4c0-.3.1-.6.4-.9.3-.2.6-.3 1-.3h5.9l2.8-.1c3.1 0 5.5.4 7.2 1.3 1.7.9 2.9 2 3.5 3.5.6 1.5.9 3.2.9 5.3 0 2.2-.5 4-1.5 5.6 1.4.9 2.4 2 3 3.2.6 1.2.9 2.8.9 4.7v1.2c-.1 1.7-.4 3.2-.9 4.6s-1.6 2.5-3.2 3.4c-1.6.9-3.9 1.4-6.9 1.4h-11.5c-.5 0-.9-.1-1.2-.4-.2-.3-.4-.6-.4-1zm11.2-19.4c.9 0 1.7-.3 2.1-.9.5-.6.7-1.3.7-2.1 0-2-1.1-3.1-3.4-3.2h-2.6c-.1 0-.2 0-.3.1s-.1.2-.1.3v5.4c0 .1 0 .2.1.3.1.1.2.1.3.1h3.2zm1 13.6c1.2-.1 2.1-.4 2.6-1 .6-.6.9-1.5.9-2.6s-.3-1.9-1-2.5c-.6-.6-1.7-.9-3.3-1H182c-.4 0-.6.1-.6.3v6.4c0 .1.1.2.2.3.1.1.3.1.4.1h3.9zM207.2 11.6v3.8h11.3c.4 0 .8.2 1.1.6.3.4.5.9.5 1.5v4.1c0 .5-.2 1-.5 1.4s-.7.6-1.1.6h-11.3V28h11.9c.5 0 .8.2 1.2.6.3.4.5.9.5 1.5v4.1c0 .6-.2 1.1-.5 1.5s-.7.6-1.2.6h-18.9c-.5 0-.8-.2-1.2-.6s-.5-.9-.5-1.5V5.4c0-.6.2-1.1.5-1.5.3-.4.7-.6 1.2-.6h18.9c.5 0 .8.2 1.2.6.3.4.5.9.5 1.5v4.1c0 .5-.2 1-.5 1.4-.3.4-.7.6-1.2.6h-11.9zM221.3 34.4c0-.5.1-1.1.2-1.6s.2-.8.3-.9l8.9-26.7c.2-.7.6-1.2 1.1-1.5.5-.4 1-.6 1.7-.6h5.8c.7 0 1.3.3 1.7.7.5.4.8.9.9 1.5l9 26.7c0 .2.1.5.2 1s.2 1 .2 1.4c0 1.1-.5 1.8-1.6 2h-5.5c-.6 0-1-.1-1.4-.4s-.6-.6-.7-1l-1.2-4.7H232l-1.2 4.7c-.1.4-.3.8-.7 1-.4.2-.8.4-1.4.4h-5.6c-1.2-.3-1.8-.9-1.8-2zm15.4-12.2h2.6L236.2 11l-3.1 11.1h3.6zM249 19.6c0-3.1.7-6 2-8.7 1.3-2.7 3.2-4.8 5.5-6.3 2.3-1.6 4.8-2.3 7.5-2.3s5.3.8 7.7 2.5c.5.3.7.8.7 1.4 0 .4-.1.8-.4 1.2l-3.9 5.1c-.3.3-.6.5-.9.5-.3 0-.5-.1-.7-.2-.7-.4-1.5-.6-2.4-.6-1.2 0-2.2.3-3.2 1-1 .6-1.7 1.5-2.3 2.6-.6 1.1-.8 2.3-.8 3.7 0 1.3.3 2.5.9 3.6.6 1.1 1.3 2 2.3 2.7 1 .7 2 1 3.2 1 .8 0 1.7-.2 2.6-.7.2-.1.4-.2.7-.2.3 0 .6.1.9.4l4.4 5.1c.3.4.5.8.5 1.3s-.2.9-.6 1.3c-2.7 2-5.5 3-8.4 3-2.7 0-5.2-.8-7.5-2.3-2.3-1.6-4.1-3.7-5.5-6.4-1.6-2.6-2.3-5.5-2.3-8.7zM302.6 5.1v29.2c0 .6-.2 1-.5 1.4-.3.4-.7.6-1.2.6h-5.8c-.4 0-.8-.2-1.2-.6-.3-.4-.5-.9-.5-1.4v-11h-10.3v11c0 .5-.2 1-.5 1.4s-.7.6-1.2.6h-5.8c-.4 0-.8-.2-1.2-.6-.3-.4-.5-.9-.5-1.4V5.1c0-.5.2-1 .5-1.4.3-.4.7-.6 1.2-.6h5.8c.5 0 .9.2 1.2.6.3.4.5.8.5 1.4v10.1h10.3V5.1c0-.5.2-1 .5-1.4.3-.4.7-.6 1.2-.6h5.8c.5 0 .9.2 1.2.5.4.4.5.9.5 1.5z"/></g></svg>