<?xml version="1.0" encoding="utf-8"?>
<!-- Generator: Adobe Illustrator 19.0.0, SVG Export Plug-In . SVG Version: 6.00 Build 0)  -->
<svg version="1.1" xmlns="http://www.w3.org/2000/svg" xmlns:xlink="http://www.w3.org/1999/xlink" x="0px" y="0px"
	 viewBox="0 0 1104 905" preserveAspectRatio="none">
<g id="pitonsSc">
</g>
<g id="Layer_2">
	<g id="XMLID_2_">
		<polygon id="XMLID_3_" fill="none" points="1103,96.2 1104.2,96.4 1104.2,208.1 1105,208.3 1105,0 1103,0 		"/>
		<polygon id="XMLID_4_" fill="#FBD6B3" points="1103,0 462,0 1103,96.2 		"/>
		<polygon id="XMLID_5_" fill="#C0E0F6" points="517.3,63 1104.2,208.1 1104.2,96.4 1103,96.2 462,0 263.7,0 517.3,63 		"/>
		<path id="XMLID_6_" fill="#6EB4E4" d="M159,157.4c53.2-69.5,81.8-87,146.8-40.2c11,7.9,21.3,16.9,31.1,26.6L517.3,63L263.7,0H0
			v294.4l107.7-48.2C123.4,218.5,135.1,188.6,159,157.4z"/>
		<path id="XMLID_7_" fill="#438ECC" d="M823.3,852.4c6.2,9.1,12.3,18.2,18.5,27.3c-201.7-14.5-482.5,57-667.1-7.7
			C117.1,851.9,57.8,814.4,0,773.1V904h1105v-60.5C1058.8,871.7,876.3,850.1,823.3,852.4z"/>
		<path id="XMLID_8_" fill="#438ECC" d="M107.7,246.3L0,294.4v50c19.9-15.6,41.9-26.5,61.6-42.3C83.1,285,96.4,266.2,107.7,246.3z"
			/>
		<path id="XMLID_9_" fill="#438ECC" d="M517.3,63L517.3,63l-180.4,80.7c29.5,29.3,53.9,65.4,74.4,98.8
			c52.7,86.2,77.4,173.2,144.7,251c102.3-92.5,128-146.7,249.2-58.2c82.4,60.2,175.3,109.4,252.4,172.7
			c36.4,29.9,42.3,23.7,47.5,37.4V208.3l-0.8-0.2L517.3,63z"/>
		<path id="XMLID_10_" fill="#1F6338" d="M1057.5,608.1c-77.1-63.3-169.9-112.5-252.4-172.7C684,346.9,658.2,401,555.9,493.5
			c-67.3-77.8-92-164.8-144.7-251c-20.5-33.5-44.8-69.5-74.4-98.8c-9.8-9.7-20.1-18.7-31.1-26.6c-65-46.8-93.6-29.2-146.8,40.2
			c-23.9,31.2-35.6,61.1-51.3,88.9c-11.3,19.9-24.6,38.7-46.1,55.9C41.9,318,19.9,328.8,0,344.4v428.7
			c57.8,41.2,117.1,78.7,174.7,98.9c184.7,64.6,465.5-6.9,667.1,7.7c-6.2-9.1-12.3-18.2-18.5-27.3c53-2.3,235.5,19.3,281.7-8.9
			V645.4C1099.8,631.7,1093.9,637.9,1057.5,608.1z"/>
	</g>
</g>
</svg>
